<?xml version="1.0" standalone="no"?>
<!DOCTYPE svg PUBLIC "-//W3C//DTD SVG 20010904//EN"
 "http://www.w3.org/TR/2001/REC-SVG-20010904/DTD/svg10.dtd">
<svg version="1.0" xmlns="http://www.w3.org/2000/svg"
 width="1224.000000pt" height="442.000000pt" viewBox="0 0 1224.000000 442.000000"
 preserveAspectRatio="xMidYMid meet">
<metadata>
Created by potrace 1.15, written by Peter Selinger 2001-2017
</metadata>
<g transform="translate(0.000000,442.000000) scale(0.100000,-0.100000)"
fill="#000000" stroke="none">
<path d="M4555 3694 c-346 -38 -655 -196 -912 -468 -175 -185 -288 -405 -340
-663 -25 -123 -24 -440 0 -573 24 -127 78 -285 134 -392 183 -347 562 -633
946 -712 501 -103 965 40 1332 410 268 270 395 588 395 989 0 251 -41 439
-139 640 -73 147 -151 254 -273 371 -207 197 -454 326 -728 379 -83 16 -336
27 -415 19z m317 -63 c321 -82 506 -364 585 -888 26 -172 26 -746 0 -916 -50
-330 -146 -569 -288 -722 -78 -83 -152 -131 -259 -169 -78 -28 -96 -30 -215
-30 -115 0 -139 3 -208 27 -271 94 -439 336 -521 751 -39 192 -50 331 -49 606
0 425 48 704 158 939 107 224 255 358 450 405 90 22 256 20 347 -3z"/>
<path d="M7416 3689 c-262 -38 -521 -182 -756 -419 -268 -270 -401 -585 -417
-980 -18 -457 102 -808 361 -1065 190 -189 412 -300 701 -352 120 -22 412 -22
511 0 128 28 295 120 429 237 73 63 143 98 230 112 153 25 242 -58 267 -248
10 -79 12 -84 34 -84 l24 0 0 608 c0 390 4 620 11 644 6 25 19 43 37 52 29 15
362 56 455 56 54 0 57 1 57 25 l0 25 -810 0 -810 0 0 -25 c0 -24 3 -25 58 -25
76 0 264 -18 330 -31 34 -7 66 -21 85 -39 l32 -28 0 -384 c0 -340 -2 -390 -18
-447 -58 -205 -194 -334 -412 -392 -60 -16 -112 -22 -210 -22 -117 -1 -137 1
-202 25 -223 80 -380 296 -468 643 -56 220 -69 350 -69 685 0 335 13 466 69
685 62 241 140 392 274 526 96 97 187 148 299 170 86 16 267 6 360 -20 384
-110 680 -497 793 -1034 22 -105 23 -107 51 -107 l28 0 0 610 c0 336 -3 610
-7 610 -5 -1 -35 -47 -67 -103 -32 -56 -90 -155 -128 -220 l-69 -117 -100 104
c-205 215 -367 298 -629 326 -111 11 -241 11 -324 -1z"/>
<path d="M10665 3694 c-336 -37 -654 -198 -901 -457 -188 -196 -300 -415 -350
-682 -26 -135 -26 -430 0 -560 27 -141 63 -251 121 -370 156 -316 469 -584
818 -700 148 -49 276 -68 452 -68 294 0 531 71 772 232 363 243 578 579 633
988 18 130 8 409 -19 533 -55 256 -158 452 -334 637 -213 222 -467 364 -761
424 -99 20 -338 33 -431 23z m317 -63 c324 -83 515 -379 588 -908 32 -240 30
-671 -6 -911 -58 -391 -198 -673 -402 -808 -129 -86 -317 -121 -482 -90 -391
73 -606 455 -651 1152 -18 291 4 626 57 863 90 400 277 638 554 706 85 21 253
19 342 -4z"/>
<path d="M90 3642 l0 -29 168 -6 c267 -10 425 -41 449 -88 18 -33 19 -2435 2
-2473 -13 -28 -54 -50 -119 -65 -67 -15 -270 -31 -392 -31 l-108 0 0 -30 0
-30 1530 0 1530 0 0 670 0 670 -28 0 -28 0 -12 -157 c-30 -391 -137 -658 -338
-842 -78 -71 -130 -106 -239 -157 -172 -82 -350 -114 -625 -114 -293 0 -501
27 -545 71 -20 19 -20 33 -20 1242 0 999 2 1226 13 1245 32 55 163 80 465 89
l227 6 0 28 0 29 -965 0 -965 0 0 -28z"/>
</g>
</svg>
